<svg width="39" height="31" viewBox="0 0 39 31" fill="none" xmlns="http://www.w3.org/2000/svg">
<path fill-rule="evenodd" clip-rule="evenodd" d="M10.0281 7.4787C9.95375 7.54435 9.87949 7.60994 9.80683 7.67719C9.63881 7.8293 9.47362 7.9838 9.31118 8.1402C7.91167 9.48792 6.66551 11.0294 5.77009 12.754C4.87349 14.4809 4.34072 16.3894 4.39048 18.2652C4.41296 19.1113 4.55708 20.0097 5.05329 20.764C5.13876 20.894 5.23464 21.0182 5.34041 21.135L7.11511 23.1272L7.13237 23.1466C7.3364 23.3756 7.58007 23.5746 7.86253 23.7285C8.287 23.9597 8.79043 24.0805 9.32401 24.0356C9.78642 23.9968 10.2213 23.8386 10.6072 23.6299C10.9914 23.4221 11.3251 23.1667 11.6262 22.9092C12.2278 22.3948 12.7156 21.875 13.2338 21.5383C14.1593 20.9369 15.3583 20.7639 16.5668 20.7353C17.7824 20.7065 19.0867 20.8024 20.4561 20.4803C22.1224 20.0884 23.6672 19.087 24.7641 17.7387C25.8596 16.392 26.4856 14.7372 26.562 13.1102C26.6422 11.4006 26.1161 9.74683 25.0854 8.48263C25.0262 8.40996 24.9649 8.3392 24.9024 8.26945L23.1105 6.25797C22.0872 5.10531 20.6479 4.33617 19.051 4.09941C17.2889 3.83818 15.4272 4.22585 13.7556 4.99449C12.3878 5.62341 11.1478 6.49523 10.0291 7.47891L10.0281 7.4787ZM10.8067 8.29811C10.8858 8.22825 10.9664 8.16014 11.0467 8.09196C12.0124 7.27586 13.0539 6.57058 14.1658 6.05934C15.644 5.3796 17.2672 5.05337 18.746 5.27259C20.1575 5.48184 21.4453 6.20127 22.3081 7.25954C23.171 8.31789 23.6197 9.72758 23.5524 11.1604C23.4885 12.5232 22.9554 13.9241 22.0498 15.0372C21.1455 16.1488 19.8508 16.9844 18.4952 17.3033C17.3712 17.5677 16.1556 17.4942 14.8654 17.5247C13.5681 17.5555 12.1162 17.7187 10.8437 18.5456C10.1302 19.0092 9.60554 19.5847 9.08852 20.0269C8.8303 20.2476 8.57303 20.4396 8.31338 20.5801C8.0555 20.7195 7.79034 20.8089 7.54844 20.8292C7.27147 20.8525 6.9788 20.7876 6.72871 20.6513C6.47658 20.514 6.25613 20.3017 6.08776 20.0457C5.74914 19.531 5.61643 18.8385 5.59698 18.1054C5.5535 16.4674 6.02288 14.7588 6.83327 13.1981C7.64478 11.6351 8.79272 10.207 10.1065 8.94186C10.3351 8.72174 10.5685 8.50668 10.8067 8.29812L10.8067 8.29811ZM11.5187 9.1058C11.2968 9.29871 11.0795 9.50016 10.8652 9.7067C9.63321 10.8931 8.57893 12.213 7.84737 13.6219C7.11923 15.0243 6.71027 16.5423 6.74771 17.9535C6.7643 18.5788 6.88623 19.075 7.07456 19.3613C7.16596 19.5003 7.27737 19.5982 7.36725 19.6472C7.45113 19.6929 7.54279 19.7045 7.57503 19.7018C7.60705 19.6991 7.71043 19.6753 7.84592 19.602C7.98665 19.5259 8.17106 19.3946 8.38847 19.2086C8.82502 18.8354 9.38468 18.2068 10.2842 17.6222C11.8875 16.5803 13.5807 16.4263 14.9628 16.3936C16.3241 16.3613 17.4552 16.4135 18.3451 16.2042C19.4046 15.955 20.4609 15.2772 21.1815 14.3914C21.9059 13.5009 22.3504 12.3422 22.4026 11.2312C22.4574 10.0623 22.0824 8.88538 21.3796 8.02328C20.677 7.16151 19.6029 6.56187 18.4553 6.39172C17.2467 6.21256 15.8509 6.48018 14.557 7.07518C13.5775 7.52553 12.6347 8.15916 11.741 8.91461C11.6664 8.97742 11.5924 9.04127 11.5186 9.10579L11.5187 9.1058ZM16.7931 10.6203C17.2185 10.2446 17.7264 9.99643 18.205 9.93037C18.6836 9.86431 19.0938 9.98578 19.3453 10.2681C19.5968 10.5504 19.669 10.9704 19.546 11.4357C19.4231 11.901 19.115 12.3735 18.6896 12.7492C18.479 12.9353 18.2459 13.092 18.0036 13.2104C17.7614 13.3288 17.5147 13.4065 17.2777 13.4393C17.0407 13.472 16.818 13.459 16.6224 13.401C16.4267 13.3431 16.2619 13.2413 16.1374 13.1015C16.0129 12.9617 15.931 12.7867 15.8966 12.5863C15.8622 12.386 15.8758 12.1643 15.9367 11.9339C15.9976 11.7035 16.1045 11.4689 16.2515 11.2435C16.3985 11.0181 16.5825 10.8064 16.7931 10.6203Z" fill="#EE8383"/>
<path d="M34.1548 10.3444C32.258 12.0046 32.0298 15.2055 32.0298 15.2055C14.0887 11.5239 10.4856 25.0293 10.4856 25.0293C10.4856 25.0293 22.3294 32.5245 33.0109 17.7056C33.0109 17.7056 35.3578 19.9048 37.8827 19.8443C37.8827 19.8443 35.6864 18.1632 34.6856 15.613C33.6853 13.0631 34.1548 10.3444 34.1548 10.3444ZM14.9973 23.1122C14.5767 23.2758 14.0887 23.0331 13.9071 22.5703C13.7254 22.1074 13.919 21.5998 14.3396 21.4362C14.7601 21.2726 15.2481 21.515 15.4297 21.9778C15.6113 22.4407 15.4178 22.9486 14.9973 23.1122ZM19.0498 25.1835C19.0292 25.2864 18.9621 25.362 18.877 25.3951C18.8225 25.4163 18.7596 25.4197 18.6963 25.4001C18.5365 25.3515 18.4346 25.175 18.4694 25.0065C19.096 21.9747 16.8232 20.5788 16.7267 20.5208C16.5792 20.433 16.5179 20.2386 16.5898 20.0866C16.661 19.9344 16.8379 19.8814 16.9857 19.9684C17.0137 19.9852 19.7777 21.662 19.0498 25.1835Z" fill="#7A7871"/>
</svg>
